<?xml version="1.0" standalone="no"?>
<!DOCTYPE svg PUBLIC "-//W3C//DTD SVG 20010904//EN"
 "http://www.w3.org/TR/2001/REC-SVG-20010904/DTD/svg10.dtd">
<svg version="1.0" xmlns="http://www.w3.org/2000/svg"
 width="500.000000pt" height="500.000000pt" viewBox="0 0 500.000000 500.000000"
 preserveAspectRatio="xMidYMid meet">

<g transform="translate(0.000000,500.000000) scale(0.100000,-0.100000)"
fill="#000000" stroke="none">
<path d="M2326 4829 c-136 -47 -218 -140 -261 -294 -18 -64 -33 -390 -21 -439
13 -51 39 -66 114 -66 61 0 71 3 93 26 23 24 24 32 24 156 l0 130 -28 24 c-22
19 -39 24 -83 24 -62 0 -62 -2 -40 101 15 70 51 147 88 190 103 119 358 146
511 55 70 -42 130 -130 151 -225 9 -38 16 -81 16 -95 0 -25 -3 -26 -55 -26
-46 0 -60 -4 -80 -25 -24 -23 -25 -29 -25 -158 0 -127 1 -135 23 -155 19 -18
35 -22 91 -22 58 0 70 3 91 25 25 24 25 27 25 194 0 270 -32 385 -139 492 -82
82 -140 102 -306 106 -112 3 -138 0 -189 -18z"/>
<path d="M1992 4284 c-18 -13 -22 -25 -22 -73 0 -52 3 -61 25 -75 l25 -16 0
90 c0 49 -1 90 -3 90 -1 0 -13 -7 -25 -16z"/>
<path d="M2980 4210 l0 -90 25 16 c22 14 25 23 25 79 0 56 -2 63 -25 73 l-25
12 0 -90z"/>
<path d="M130 2235 l0 -1735 2365 0 2365 0 0 1735 0 1735 -2365 0 -2365 0 0
-1735z m2814 558 c-13 -134 -19 -174 -28 -174 -6 0 -15 20 -21 45 -6 25 -17
52 -24 60 -20 24 -108 37 -227 34 l-109 -3 -3 -209 c-2 -196 -1 -208 15 -203
10 4 70 24 133 46 163 56 269 75 430 75 156 0 256 -18 400 -71 82 -30 265
-122 257 -129 -1 -2 -54 15 -117 36 -176 60 -301 82 -460 82 -231 0 -394 -45
-795 -221 -245 -108 -366 -152 -496 -179 -195 -42 -368 -37 -549 14 -92 26
-286 118 -335 158 -27 22 -19 21 66 -14 118 -48 261 -86 382 -101 212 -26 447
24 760 159 l108 47 -3 262 c-3 306 -1 300 -101 310 -31 3 -57 10 -57 14 0 5
156 10 348 10 191 1 361 5 377 9 57 14 56 15 49 -57z m54 -608 c-2 -3 -42 -11
-89 -20 -102 -17 -211 -52 -304 -97 l-70 -33 1 -133 c2 -192 14 -204 199 -206
162 -1 189 16 230 148 4 13 9 16 16 9 14 -14 -8 -191 -28 -222 l-16 -24 -255
6 c-140 4 -306 7 -369 7 -112 0 -151 12 -72 23 52 7 69 24 80 79 8 41 13 208
6 208 -2 0 -32 -14 -67 -31 -156 -75 -344 -115 -482 -102 -78 7 -81 23 -5 23
135 1 293 54 554 186 213 107 316 147 436 169 69 13 245 20 235 10z m-1500
-897 c7 -52 6 -68 -4 -68 -6 0 -12 6 -11 13 0 6 -1 35 -2 62 -2 49 -2 49 -16
25 -20 -35 -18 -18 3 26 9 20 18 31 19 23 1 -8 6 -44 11 -81z m746 70 c13 -19
14 -25 2 -43 -7 -11 -22 -22 -32 -24 -16 -3 -15 0 5 16 31 25 22 63 -15 63
-25 0 -26 -1 -22 -75 2 -46 -1 -75 -7 -75 -6 0 -10 33 -10 80 l0 80 32 0 c22
0 37 -7 47 -22z m806 -54 l0 -76 30 4 c17 3 30 1 30 -4 0 -4 -19 -8 -42 -8
l-43 0 0 80 c0 57 4 80 13 80 8 0 12 -22 12 -76z m-1614 -34 c7 14 13 22 14
18 0 -12 -23 -58 -30 -58 -3 0 -18 24 -32 53 l-27 52 -2 -40 c-1 -22 -3 -48
-2 -57 0 -10 -6 -18 -13 -18 -9 0 -10 8 -3 32 5 18 9 49 9 69 0 58 13 55 43
-12 29 -63 29 -63 43 -39z m134 32 c0 -32 5 -63 12 -70 9 -9 9 -12 0 -12 -6 0
-16 9 -22 19 -13 25 -13 121 0 121 6 0 10 -26 10 -58z m79 -68 c-6 -8 -17 -14
-23 -14 -6 0 -3 5 7 11 13 8 17 25 19 72 l2 62 3 -58 c3 -36 -1 -64 -8 -73z
m115 117 c3 -4 -5 -6 -18 -4 -40 8 -41 -17 -2 -53 20 -18 36 -37 36 -42 0 -14
-29 -36 -37 -28 -3 3 -1 6 5 6 23 0 12 37 -18 58 -32 24 -37 41 -18 60 14 14
44 16 52 3z m76 -61 c0 -49 -4 -70 -12 -70 -10 0 -12 19 -10 70 5 91 22 91 22
0z m154 54 c22 -21 20 -31 -1 -11 -10 8 -29 17 -43 20 l-25 4 27 2 c15 0 34
-6 42 -15z m316 -50 l0 -66 34 4 c19 2 32 0 30 -4 -3 -4 -22 -8 -42 -8 l-37 0
0 70 c0 39 3 70 8 70 4 0 7 -30 7 -66z m279 31 c7 -19 16 -35 20 -35 4 0 16
16 27 35 10 19 22 35 27 35 9 0 4 -10 -25 -52 -10 -14 -18 -40 -18 -57 0 -17
-4 -31 -10 -31 -5 0 -10 14 -10 31 0 17 -8 43 -18 57 -31 45 -34 52 -20 52 8
0 20 -16 27 -35z m164 28 c-29 -4 -33 -8 -33 -34 0 -25 4 -29 28 -30 l27 -2
-27 -4 c-22 -3 -28 -10 -28 -30 0 -23 3 -25 35 -21 19 2 35 0 35 -4 0 -4 -19
-8 -42 -8 l-43 0 3 70 4 70 36 -2 37 -1 -32 -4z m110 0 c-9 -3 -13 -27 -13
-69 0 -36 -4 -64 -10 -64 -6 0 -10 30 -10 70 0 66 1 70 23 69 12 0 16 -3 10
-6z m312 -63 c0 -40 -4 -70 -10 -70 -6 0 -10 30 -10 70 0 40 4 70 10 70 6 0
10 -30 10 -70z m155 61 c0 -4 -11 -6 -25 -3 -25 4 -25 3 -25 -62 0 -46 -4 -66
-12 -66 -10 0 -12 18 -10 64 4 64 3 65 -25 69 -15 2 0 5 35 6 34 0 62 -3 62
-8z m78 2 c-23 -4 -28 -9 -28 -34 0 -25 4 -29 28 -30 l27 -2 -27 -4 c-22 -3
-28 -10 -28 -30 0 -22 3 -25 30 -21 17 3 30 1 30 -4 0 -4 -18 -8 -40 -8 l-40
0 0 70 0 70 38 -1 c30 -2 32 -3 10 -6z m-1502 -25 c-22 -32 -20 -55 9 -83 27
-28 12 -35 -17 -8 -28 25 -19 113 13 113 6 0 3 -10 -5 -22z m592 -45 c19 -40
26 -63 18 -63 -7 0 -20 23 -30 50 -10 28 -22 50 -26 50 -4 0 -16 -22 -26 -50
-10 -27 -21 -50 -26 -50 -4 0 -3 11 2 25 14 38 51 107 55 103 1 -1 17 -31 33
-65z m411 53 c12 -14 5 -46 -10 -46 -16 0 -10 -16 16 -44 13 -14 20 -26 14
-26 -6 0 -23 15 -40 32 -28 31 -28 33 -9 40 22 8 27 43 8 51 -8 4 -9 6 -2 6 6
1 17 -5 23 -13z m-909 -101 c-7 -8 -17 -15 -23 -15 -6 0 -2 7 9 15 25 19 30
19 14 0z m-285 -5 c3 -5 1 -10 -4 -10 -6 0 -11 5 -11 10 0 6 2 10 4 10 3 0 8
-4 11 -10z m542 -412 c-2 -13 -4 -3 -4 22 0 25 2 35 4 23 2 -13 2 -33 0 -45z
m114 15 l24 -26 -32 23 c-34 25 -39 30 -25 30 5 0 19 -12 33 -27z m121 -2 c2
-17 1 -28 -4 -25 -8 5 -12 54 -4 54 2 0 6 -13 8 -29z m132 -20 c-5 -6 -33 31
-33 44 -1 6 8 -1 19 -15 10 -14 17 -27 14 -29z m36 12 c0 -32 -5 -28 -14 10
-4 19 -3 26 4 22 5 -3 10 -18 10 -32z m85 7 c9 -16 12 -30 7 -30 -4 0 -13 14
-19 30 -6 17 -10 30 -7 30 2 0 10 -13 19 -30z m-44 -23 c-10 -9 -11 -8 -5 6 3
10 9 15 12 12 3 -3 0 -11 -7 -18z"/>
</g>
</svg>
